<svg width="246" height="173" viewBox="0 0 246 173" fill="none" xmlns="http://www.w3.org/2000/svg">
<g id="Azerbaijan" filter="url(#filter0_dd_1105_9359)">
<g clip-path="url(#clip0_1105_9359)">
<rect x="12.5" y="5" width="221" height="147" fill="white"/>
<g id="Wrap">
<path id="Element" d="M12.5352 5H233.535V152H12.5352V5Z" fill="#509E2F"/>
<path id="Element_2" d="M12.5352 5H233.535V103H12.5352V5Z" fill="#EF3340"/>
<path id="Element_3" d="M12.5352 5H233.535V54H12.5352V5Z" fill="#00B5E2"/>
<g id="Element_4">
<path id="Element_5" d="M119.134 98.7494C130.111 98.7494 139.009 89.8512 139.009 78.8747C139.009 67.8982 130.111 59 119.134 59C108.158 59 99.2598 67.8982 99.2598 78.8747C99.2598 89.8512 108.158 98.7494 119.134 98.7494Z" fill="white"/>
<path id="Element_6" d="M123.552 95.437C132.7 95.437 140.115 88.0218 140.115 78.8748C140.115 69.7277 132.7 62.3125 123.552 62.3125C114.405 62.3125 106.99 69.7277 106.99 78.8748C106.99 88.0218 114.405 95.437 123.552 95.437Z" fill="#ED2939"/>
<path id="Element_7" d="M141.217 67.832L143.343 73.7668L149.029 71.0617L146.324 76.7756L152.259 78.8735L146.324 80.999L149.029 86.6854L143.343 83.9802L141.217 89.915L139.092 83.9802L133.405 86.6854L136.111 80.999L130.176 78.8735L136.111 76.748L133.405 71.0617L139.092 73.7668L141.217 67.832Z" fill="white"/>
</g>
</g>
</g>
<rect x="12.5" y="5" width="221" height="147" stroke="#A8B7D4" stroke-width="0.498424" stroke-linejoin="round"/>
</g>
<defs>
<filter id="filter0_dd_1105_9359" x="0.25" y="0.75" width="245.5" height="171.5" filterUnits="userSpaceOnUse" color-interpolation-filters="sRGB">
<feFlood flood-opacity="0" result="BackgroundImageFix"/>
<feColorMatrix in="SourceAlpha" type="matrix" values="0 0 0 0 0 0 0 0 0 0 0 0 0 0 0 0 0 0 127 0" result="hardAlpha"/>
<feOffset dy="8"/>
<feGaussianBlur stdDeviation="6"/>
<feComposite in2="hardAlpha" operator="out"/>
<feColorMatrix type="matrix" values="0 0 0 0 0.258824 0 0 0 0 0.278431 0 0 0 0 0.298039 0 0 0 0.08 0"/>
<feBlend mode="normal" in2="BackgroundImageFix" result="effect1_dropShadow_1105_9359"/>
<feColorMatrix in="SourceAlpha" type="matrix" values="0 0 0 0 0 0 0 0 0 0 0 0 0 0 0 0 0 0 127 0" result="hardAlpha"/>
<feOffset/>
<feGaussianBlur stdDeviation="0.5"/>
<feComposite in2="hardAlpha" operator="out"/>
<feColorMatrix type="matrix" values="0 0 0 0 0.258824 0 0 0 0 0.278431 0 0 0 0 0.298039 0 0 0 0.32 0"/>
<feBlend mode="normal" in2="effect1_dropShadow_1105_9359" result="effect2_dropShadow_1105_9359"/>
<feBlend mode="normal" in="SourceGraphic" in2="effect2_dropShadow_1105_9359" result="shape"/>
</filter>
<clipPath id="clip0_1105_9359">
<rect x="12.5" y="5" width="221" height="147" fill="white"/>
</clipPath>
</defs>
</svg>
